<svg width="74" height="110" xmlns="http://www.w3.org/2000/svg"><g fill="#FFF" fill-rule="evenodd"><path d="M15.56 74.874c-.47-1.53-1.003-3.044-1.396-4.595-.92-3.628-1.922-7.243-2.604-10.92-.584-3.151-.805-6.376-1.116-9.575-.165-1.697-.202-3.408-.26-5.114-.125-3.634.534-7.18 1.144-10.733 1.453-8.465 4.911-15.995 9.997-22.757a39.678 39.678 0 0 1 9.162-8.799c3.956-2.744 8.1-3.087 12.463-1.18 3.206 1.401 5.849 3.595 8.217 6.173 6.126 6.67 10.4 14.418 12.535 23.356 1.199 5.02 2.04 10.117 1.916 15.312-.06 2.5-.368 4.995-.611 7.487-.377 3.87-1.013 7.699-1.996 11.456-.757 2.891-1.582 5.764-2.401 8.638-.119.415-.373.788-.564 1.18a50.37 50.37 0 0 1-.197-.067c.145-.803.275-1.61.437-2.41 1.335-6.59 1.865-13.241 1.495-19.968-.318-5.795-1.05-11.515-2.787-17.063-1.81-5.782-4.592-10.98-8.831-15.245-1.358-1.365-2.9-2.549-4.428-3.717-.823-.63-1.049-1.31-.917-2.328.425-3.29-.41-6.277-2.414-8.847-1.239-1.588-3.056-1.947-4.94-1.896-3.373.09-4.946 2.401-6.011 5.288-.646 1.75-.788 3.581-.601 5.427.112 1.111-.225 1.878-1.138 2.515-5.578 3.896-9.288 9.313-11.856 15.648-2.459 6.067-3.7 12.391-3.797 18.96-.034 2.27-.04 4.54-.1 6.81-.145 5.46.658 10.803 1.815 16.107.057.261.067.534.098.802l-.314.055m24.99 31.189c2.136-.223 4.28-.386 6.406-.68 3.914-.543 7.743-1.45 11.372-3.08 2.423-1.088 4.687-2.443 6.636-4.292 1.653-1.567 2.426-3.508 2.388-5.794-.007-.466 0-.932 0-1.493 2.385 1.2 4.595 2.512 5.975 4.848 1.296 2.194.491 5.272-1.702 6.644-4.062 2.542-8.417 4.4-13.03 5.624-5.618 1.49-11.337 2.303-17.142 2.14-3.24-.092-6.475-.488-9.704-.824-5.256-.547-10.363-1.831-15.414-3.363-.178-.054-.356-.107-.53-.223 5.977.268 11.946.822 18.131.478-2.254-1.445-3.72-3.287-4.084-5.861-.368-2.61.642-4.76 2.406-6.705-5.661.467-11.1 1.307-16.267 3.448-2.554 1.058-4.987 2.33-6.914 4.395-1.274 1.367-2.348 2.871-2.633 4.798-.067.457-.015.935-.003 1.402.008.353.039.706.06 1.058l-.163.14c-1.18-.759-2.392-1.473-3.531-2.291a6.998 6.998 0 0 1-2.449-3.127c-.892-2.225-.072-4.872 1.953-6.115 4.521-2.775 9.34-4.81 14.518-5.937 1.008-.219 2.003-.497 3.003-.753.125-.032.24-.101.361-.153l-.02-.172c-.364 0-.728-.013-1.09.003-1.364.061-2.695-.115-3.97-.608-1.434-.554-1.942-1.588-1.457-3.06.25-.76.642-1.472 1.054-2.392.15.305.26.429.268.56.025.383.003.77.012 1.156.034 1.546 1.094 2.616 2.614 2.607 1.75-.011 3.5-.075 5.25-.071 7.56.016 15.12.042 22.68.077 3.018.014 6.036.074 9.055.084a8.317 8.317 0 0 0 1.816-.21c1.765-.391 2.448-1.153 2.768-2.96.033-.186.146-.356.222-.534.111.155.271.294.326.467.211.67.418 1.345.572 2.03.236 1.05-.217 1.737-1.215 2.141-1.568.636-3.204.686-4.849.692-2.745.011-5.491 0-8.237.007-.342 0-.683.05-1.025.075l-.015.177 13.659 3.353-.035.276c-.232.01-.466.044-.697.029-2.947-.19-5.894-.388-8.84-.583-2.211-.146-4.421-.294-6.632-.428-.19-.011-.385.075-.578.116.095.167.158.366.289.495 3.467 3.43 3.021 8.846-.972 11.693-.217.155-.439.304-.658.456l.062.24"/><path d="M35.423 26.833a17.898 17.898 0 0 0-5.042 2.47c-3.706 2.594-5.947 6.228-7.484 10.344-1.232 3.3-1.819 6.733-2.109 10.228-.287 3.455-.213 6.901.161 10.343.147 1.353.386 2.697.572 4.046.049.352.056.71.083 1.065l-.173.048c-.126-.335-.278-.663-.376-1.006-1.13-3.96-1.974-7.973-2.358-12.078-.47-5.031-.17-10.006 1.082-14.905 1.23-4.82 3.383-9.204 6.774-12.912 1.298-1.42 2.805-2.655 4.247-3.942.56-.499.98-.389 1.394.341.742 1.309 1.912 2.1 3.346 2.82.064-.46.149-.843.166-1.23.148-3.407.284-6.815.425-10.223.042-1.009.247-1.194 1.254-1.142 1.29.067 1.266.068 1.326 1.335.167 3.535.355 7.068.538 10.601.01.186.056.37.096.623 1.23-.552 2.223-1.294 3.016-2.305 1.068-1.361 1.077-1.349 2.472-.277 4.305 3.308 7.125 7.648 9.046 12.62 2.178 5.635 2.808 11.47 2.383 17.457-.335 4.716-1.279 9.312-2.638 13.833a1.172 1.172 0 0 1-.472.643c.21-1.442.441-2.88.625-4.326.513-4.051.671-8.11.263-12.183-.397-3.964-1.26-7.812-2.862-11.48-1.851-4.238-4.752-7.53-8.954-9.648-.691-.348-1.363-.732-2.048-1.095-.531-.281-.708-.194-.683.402.077 1.788.158 3.577.288 5.362.127 1.74-.153 3.395-.886 4.976-.49 1.057-2.157 1.232-2.722.207-.462-.838-.892-1.815-.92-2.742-.07-2.295.1-4.596.168-6.895.013-.424.002-.849.002-1.375m-8.08 53.106c.384.694.384.694-1.27 1.809h12.69c-.063-.06-.1-.114-.148-.134-1.611-.681-2.215-2-2.068-3.832.05-.634 0-1.277-.005-1.915-.01-1.178.273-1.397 1.372-1.009 0 1.192-.026 2.4.007 3.606.038 1.404.905 2.156 2.379 2.128 1.334-.026 2.098-.818 2.108-2.205.009-1.209.003-2.417.003-3.626v-.137c-.004-1.067.28-1.319 1.368-1.113 0 1.41-.053 2.842.014 4.267.08 1.688-.34 3.01-1.852 3.714-.083.039-.143.136-.34.332h.8c3.434-.005 6.868-.017 10.302-.004.263.001.62.083.771.278.341.441.015 1.058-.53 1.09-.187.01-.374.002-.562.002-10.884 0-21.768.007-32.652-.023-.408 0-.816-.344-1.243-.536.357-.694.757-.86 1.286-.832.79.04 1.581.024 2.372.022.217 0 .433-.035.784-.065-.587-.41-1.072-.694-1.5-1.057-1.919-1.63-1.93-4.794-.039-6.466a4.73 4.73 0 0 1 5.623-.514c.475.288.54.517.307 1.26-.547-.161-1.095-.344-1.653-.482-1.355-.336-2.633-.19-3.618.994-.766.923-.92 2.045-.415 3.175.595 1.332 1.638 2.025 2.976 1.912.918-.077 1.817-.415 2.733-.64m-6.887-11.525l7.09 1.416c3.056.61 6.11 1.23 9.173 1.823.382.074.825.08 1.208.008 5.524-1.043 11.041-2.105 16.562-3.16.247-.047.504-.065.756-.097l.217.202c-.212.094-.428.183-.634.285-1.764.867-3.547 1.712-5.28 2.618-.755.395-1.579.423-2.405.516-2.932.332-5.857.723-8.802.956-1.42.112-2.892 0-4.318-.149-2.29-.238-4.565-.58-6.84-.902a3.952 3.952 0 0 1-1.191-.362c-1.699-.854-3.377-1.734-5.055-2.614-.222-.116-.402-.281-.6-.424l.12-.116"/><path d="M46.229 62.867c.14.693.221 1.277.38 1.841.16.563.014.9-.695 1.312-.787-.488-.82-.69-.603-1.49.137-.507.089-1.058.126-1.618h-3.188l.332 2.45c.07 0 .139-.002.208-.003l-.85 1.046c-.998-.531-1.081-.945-.66-1.91.204-.47.15-1.04.22-1.625-1.058 0-1.96-.024-2.858.02-.178.01-.489.283-.487.431.007.617-.055 1.307.216 1.832.434.843.29 1.455-.374 2.056-.087.08-.153.18-.228.27-1.177-.859-1.176-1.052-.74-2.293.242-.687.217-1.456.32-2.243h-3.522c.306 1.191.946 2.404-.084 3.537-.961-.43-1.19-1.018-.721-1.95.528-1.048.14-1.645-1.087-1.66-.687-.009-1.374-.002-2.098-.002-.048.585-.099 1.106.306 1.616.44.557.25.963-.6 1.589-1.05-.472-1.166-.794-.634-1.76.35-.635.215-1.08-.435-1.444-.147-.083-.364-.145-.419-.267-.157-.35-.355-.737-.319-1.09.019-.18.496-.335.784-.465.125-.057.296-.034.446-.034 6.022-.001 12.043-.002 18.065 0 .824.001 1.084.277 1.03 1.033-.037.532-.328.808-.897.82-.234.006-.468.001-.934.001"/><path d="M25.882 64.803c.389.038.62.031.838.086 3.312.834 6.623 1.67 9.931 2.52 1.178.303 2.305.04 3.44-.253 3.19-.826 6.385-1.634 9.578-2.448.035-.009.077.01.247.038-.445.4-.81.763-1.208 1.08-2.344 1.87-5.048 2.823-7.922 3.252-3.28.49-6.528.286-9.686-.857-1.745-.632-3.333-1.552-4.706-2.854-.141-.134-.264-.29-.512-.564M37.89 47.795c.656 0 1.314.029 1.968-.007.757-.041.928-.337.62-1.074-.296-.712-.678-1.385-.953-2.105-.29-.757-.848-.954-1.516-.996-.671-.042-1.215.204-1.54.862-.368.744-.733 1.49-1.072 2.25-.305.682-.126 1.018.584 1.062.635.04 1.273.008 1.91.008zm-.007 2.057c-1.12 0-2.244.058-3.36-.016-1.104-.074-1.523-.818-1.059-1.88.847-1.942 1.754-3.854 2.664-5.764.097-.203.363-.378.582-.44.94-.267 1.882-.175 2.791.165.212.08.44.296.537.512a223.462 223.462 0 0 1 2.299 5.327c.356.86.186 1.598-.434 1.879-.396.179-.857.242-1.293.26-.907.038-1.818.012-2.726.012v-.055zm-8.995 36.113c.128-.914-.206-1.935.655-2.754.144.62.311 1.137.38 1.675.14 1.101.303 1.329 1.152 1.348.404.01.809.004 1.214.003.954-.003.954-.045.972-1.277.009-.57.16-1.135.247-1.703l.342-.062c.143.437.368.858.416 1.312.157 1.493.316 1.744 1.436 1.725 1.635-.028 1.732.43 1.717-2.21-.001-.243.028-.487.045-.77h.976c0 .598.014 1.195-.004 1.79-.028.956.117 1.105.834 1.049.74-.058 1.484-.013 2.316-.013 0-.57-.038-1.07.011-1.553.045-.442.183-.867.28-1.3l.29-.02c.091.494.266.989.259 1.48-.016 1.152.118 1.38 1.005 1.37.805-.007 1.61 0 2.434 0 .157-.949-.166-2.008.644-2.813.115.426.264.779.3 1.15.147 1.52.244 1.656 1.38 1.657h1.914c.14-.975-.208-2.019.485-2.777.585.77.387 1.75.42 2.77.944 0 1.894.03 2.843-.015.448-.021.507-.514.475-.996-.023-.36-.123-.724-.097-1.075.016-.218.202-.415.311-.621.123.15.315.274.355.455.14.635.23 1.29.353 2.026.556.478 1.482.049 2.063.788l-.062.287H18.487c.254-.31.379-.532.546-.645.163-.11.37-.118.558-.157 1.078-.221 1.078-.22 1.08-1.686v-1.21c1.046.652.652 1.943 1.087 2.85.72 0 1.525.026 2.33-.01.482-.021.67-.469.74-1.059.063-.537.177-1.065.269-1.597l.265-.032.488 2.62h3.038zM42.519 33.34v1.901c0 1.036.009 2.072-.009 3.107-.003.196-.045.461-.183.574-.548.45-1.139.856-1.721 1.27-.13.092-.285.183-.441.214-2.4.47-4.7.474-6.585-1.303-.15-.14-.304-.364-.303-.547.018-1.657.068-3.314.114-4.97.002-.068.045-.134.109-.309.178.299.328.504.428.728.548 1.221 1.105 2.44 1.614 3.676.24.583.62.818 1.285.779.688-.04 1.38-.013 2.072-.006.659.007 1.106-.256 1.365-.834.522-1.168 1.062-2.33 1.606-3.489.136-.288.32-.557.48-.835l.169.045m-4.599 23.97h5.578c.732.001.877.083.872.478-.005.351-.19.446-.894.446-3.72 0-7.44-.002-11.159-.005-.76 0-.892-.073-.888-.466.003-.386.134-.452.912-.452h5.578M48.126 75.17c.036 1.097.153 1.212 1.045.994.19-.046.386-.109.553-.223.406-.276.563-1.028.232-1.408-.224-.257-.6-.366-.921-.422-.82-.143-.944.024-.91 1.058zm.038 4.213c1.49.331 1.935.106 2.477-1.192-.595-1.278-1.522-1.122-2.477-.958v2.15zm2.37-2.87l.429.327c.596.457.877 1.087.784 1.757-.126.913-.594 1.61-1.293 1.697a18.99 18.99 0 0 1-2.8.118c-.171-.004-.476-.43-.48-.67-.042-1.984-.031-3.97-.025-5.956.001-.487.225-.777.62-.76.686.03 1.383.022 2.055.171 1.291.288 1.666 1.504.934 2.854-.07.13-.132.27-.225.462zm-13.43-24.748h5.357c.502 0 .916.03.968.353.074.458-.075.525-1.024.526-3.122.003-6.245.026-9.368.041-.203 0-.405.006-.608.004-.808-.008-1.123-.215-.958-.602.146-.343.688-.32 1.19-.32 1.318 0 2.637.012 3.955.02h.488v-.022m-6.596 21.26c.927.075 1.232.442 1.234 1.437.003 1.555 0 3.111 0 4.736.895 0 1.753.003 2.611-.001.382-.002.79-.074.773.618-.016.66-.376.613-.784.599-.974-.033-1.95-.005-2.924-.026-.603-.013-.898-.314-.904-.984-.018-2.11-.006-4.219-.006-6.379m1.316-17.563c.124.081.177.113.226.148.392.284.439.398-.069.744a.236.236 0 0 1-.15.03c-.377-.08-.524-.418-.289-.653.088-.087.18-.171.282-.269m7.474.925c-.63-.385-.63-.518-.014-.925.613.331.62.538.014.925m-4.614 0c-.644-.39-.64-.626-.004-.925.593.36.595.503.004.925m7.338-.925c.648.233.665.548.05.925-.617-.286-.633-.575-.05-.925"/></g></svg>